#Comment line ignore any data following # character 
#Hierarchical Translation and Rotation (.htr) file 
[Header]	
#Header keywords are followed by a single value 
FileType HTR		#Single word string
DataType HTRS		#Translation followed by rotation and scale data
FileVersion 1		#integer
NumSegments 64		#integer
NumFrames 3		#integer
DataFrameRate 30		#integer, data frame rate in this file
EulerRotationOrder ZYX
CalibrationUnits mm
RotationUnits Degrees
GlobalAxisofGravity Y
BoneLengthAxis Y
ScaleFactor 1.00
[SegmentNames&Hierarchy]
#CHILD	PARENT
Pinger_Root GLOBAL
Pelvis Pinger_Root
L_Hip Pelvis
R_Hip Pelvis
Rear_Leg01 Pelvis
Spine1 Pelvis
L_Leg01 L_Hip
L_Leg02 L_Leg01
L_Leg03 L_Leg02
L_Foot L_Leg03
L_Toe1_01 L_Foot
L_Toe2_01 L_Foot
L_Toe3_01 L_Foot
planeAlignerLeft L_Foot
L_Toe1_02 L_Toe1_01
L_Toe1_03 L_Toe1_02
L_Toe2_02 L_Toe2_01
L_Toe2_03 L_Toe2_02
L_Toe3_02 L_Toe3_01
L_Toe3_03 L_Toe3_02
planeLockWeightLeft planeAlignerLeft
R_Leg01 R_Hip
R_Leg02 R_Leg01
R_Leg03 R_Leg02
R_Foot R_Leg03
planeAlignerRight R_Foot
R_Toe1_01 R_Foot
R_Toe2_01 R_Foot
R_Toe3_01 R_Foot
planeLockWeightRight planeAlignerRight
R_Toe1_02 R_Toe1_01
R_Toe1_03 R_Toe1_02
R_Toe2_02 R_Toe2_01
R_Toe2_03 R_Toe2_02
R_Toe3_02 R_Toe3_01
R_Toe3_03 R_Toe3_02
Rear_Leg02 Rear_Leg01
Rear_Leg03 Rear_Leg02
Rear_Leg04 Rear_Leg03
Rear_Foot Rear_Leg04
planeAlignerCenter Rear_Foot
Rear_Toe1_01 Rear_Foot
Rear_Toe2_01 Rear_Foot
Rear_Toe3_01 Rear_Foot
planeLockWeightCenter planeAlignerCenter
Rear_Toe1_02 Rear_Toe1_01
Rear_Toe1_03 Rear_Toe1_02
Rear_Toe2_02 Rear_Toe2_01
Rear_Toe2_03 Rear_Toe2_02
Rear_Toe3_02 Rear_Toe3_01
Rear_Toe3_03 Rear_Toe3_02
Back_Bone Spine1
Head Spine1
Motor_Bone Back_Bone
Ping_Mechanism Back_Bone
BN_LookIK Head
bottomMouth Head
L_Mouth01 Head
L_mouthFront Head
mouthGun Head
R_Mouth01 Head
R_mouthFront Head
TopMouth Head
weapon_bone Head
[BasePosition]
#SegmentName Tx, Ty, Tz, Rx, Ry, Rz, BoneLength
Pinger_Root 0.000000 0.000000 0.000000 -90.000000 0.000000 0.000000 10.000000 
Pelvis 0.000000 0.000000 0.000000 0.000000 0.000000 0.000000 10.000000 
L_Hip 0.000000 0.000000 0.000000 0.000000 0.000000 0.000000 10.000000 
R_Hip 0.000000 0.000000 0.000000 0.000000 0.000000 0.000000 10.000000 
Rear_Leg01 0.000000 0.000000 0.000000 0.000000 0.000000 0.000000 10.000000 
Spine1 0.000000 0.000000 0.000000 0.000000 0.000000 0.000000 10.000000 
L_Leg01 0.000000 0.000000 0.000000 0.000000 0.000000 0.000000 10.000000 
L_Leg02 0.000000 0.000000 0.000000 0.000000 0.000000 0.000000 10.000000 
L_Leg03 0.000000 0.000000 0.000000 0.000000 0.000000 0.000000 10.000000 
L_Foot 0.000000 0.000000 0.000000 0.000000 0.000000 0.000000 10.000000 
L_Toe1_01 0.000000 0.000000 0.000000 0.000000 0.000000 0.000000 10.000000 
L_Toe2_01 0.000000 0.000000 0.000000 0.000000 0.000000 0.000000 10.000000 
L_Toe3_01 0.000000 0.000000 0.000000 0.000000 0.000000 0.000000 10.000000 
planeAlignerLeft 0.000000 0.000000 0.000000 0.000000 0.000000 0.000000 10.000000 
L_Toe1_02 0.000000 0.000000 0.000000 0.000000 0.000000 0.000000 10.000000 
L_Toe1_03 0.000000 0.000000 0.000000 0.000000 0.000000 0.000000 10.000000 
L_Toe2_02 0.000000 0.000000 0.000000 0.000000 0.000000 0.000000 10.000000 
L_Toe2_03 0.000000 0.000000 0.000000 0.000000 0.000000 0.000000 10.000000 
L_Toe3_02 0.000000 0.000000 0.000000 0.000000 0.000000 0.000000 10.000000 
L_Toe3_03 0.000000 0.000000 0.000000 0.000000 0.000000 0.000000 10.000000 
planeLockWeightLeft 0.000000 0.000000 0.000000 0.000000 0.000000 0.000000 10.000000 
R_Leg01 0.000000 0.000000 0.000000 0.000000 0.000000 0.000000 10.000000 
R_Leg02 0.000000 0.000000 0.000000 0.000000 0.000000 0.000000 10.000000 
R_Leg03 0.000000 0.000000 0.000000 0.000000 0.000000 0.000000 10.000000 
R_Foot 0.000000 0.000000 0.000000 0.000000 0.000000 0.000000 10.000000 
planeAlignerRight 0.000000 0.000000 0.000000 0.000000 0.000000 0.000000 10.000000 
R_Toe1_01 0.000000 0.000000 0.000000 0.000000 0.000000 0.000000 10.000000 
R_Toe2_01 0.000000 0.000000 0.000000 0.000000 0.000000 0.000000 10.000000 
R_Toe3_01 0.000000 0.000000 0.000000 0.000000 0.000000 0.000000 10.000000 
planeLockWeightRight 0.000000 0.000000 0.000000 0.000000 0.000000 0.000000 10.000000 
R_Toe1_02 0.000000 0.000000 0.000000 0.000000 0.000000 0.000000 10.000000 
R_Toe1_03 0.000000 0.000000 0.000000 0.000000 0.000000 0.000000 10.000000 
R_Toe2_02 0.000000 0.000000 0.000000 0.000000 0.000000 0.000000 10.000000 
R_Toe2_03 0.000000 0.000000 0.000000 0.000000 0.000000 0.000000 10.000000 
R_Toe3_02 0.000000 0.000000 0.000000 0.000000 0.000000 0.000000 10.000000 
R_Toe3_03 0.000000 0.000000 0.000000 0.000000 0.000000 0.000000 10.000000 
Rear_Leg02 0.000000 0.000000 0.000000 0.000000 0.000000 0.000000 10.000000 
Rear_Leg03 0.000000 0.000000 0.000000 0.000000 0.000000 0.000000 10.000000 
Rear_Leg04 0.000000 0.000000 0.000000 0.000000 0.000000 0.000000 10.000000 
Rear_Foot 0.000000 0.000000 0.000000 0.000000 0.000000 0.000000 10.000000 
planeAlignerCenter 0.000000 0.000000 0.000000 0.000000 0.000000 0.000000 10.000000 
Rear_Toe1_01 0.000000 0.000000 0.000000 0.000000 0.000000 0.000000 10.000000 
Rear_Toe2_01 0.000000 0.000000 0.000000 0.000000 0.000000 0.000000 10.000000 
Rear_Toe3_01 0.000000 0.000000 0.000000 0.000000 0.000000 0.000000 10.000000 
planeLockWeightCenter 0.000000 0.000000 0.000000 0.000000 0.000000 0.000000 10.000000 
Rear_Toe1_02 0.000000 0.000000 0.000000 0.000000 0.000000 0.000000 10.000000 
Rear_Toe1_03 0.000000 0.000000 0.000000 0.000000 0.000000 0.000000 10.000000 
Rear_Toe2_02 0.000000 0.000000 0.000000 0.000000 0.000000 0.000000 10.000000 
Rear_Toe2_03 0.000000 0.000000 0.000000 0.000000 0.000000 0.000000 10.000000 
Rear_Toe3_02 0.000000 0.000000 0.000000 0.000000 0.000000 0.000000 10.000000 
Rear_Toe3_03 0.000000 0.000000 0.000000 0.000000 0.000000 0.000000 10.000000 
Back_Bone 0.000000 0.000000 0.000000 0.000000 0.000000 0.000000 10.000000 
Head 0.000000 0.000000 0.000000 0.000000 0.000000 0.000000 10.000000 
Motor_Bone 0.000000 0.000000 0.000000 0.000000 0.000000 0.000000 10.000000 
Ping_Mechanism 0.000000 0.000000 0.000000 0.000000 0.000000 0.000000 10.000000 
BN_LookIK 0.000000 0.000000 0.000000 0.000000 0.000000 0.000000 10.000000 
bottomMouth 0.000000 0.000000 0.000000 0.000000 0.000000 0.000000 10.000000 
L_Mouth01 0.000000 0.000000 0.000000 0.000000 0.000000 0.000000 10.000000 
L_mouthFront 0.000000 0.000000 0.000000 0.000000 0.000000 0.000000 10.000000 
mouthGun 0.000000 0.000000 0.000000 0.000000 0.000000 0.000000 10.000000 
R_Mouth01 0.000000 0.000000 0.000000 0.000000 0.000000 0.000000 10.000000 
R_mouthFront 0.000000 0.000000 0.000000 0.000000 0.000000 0.000000 10.000000 
TopMouth 0.000000 0.000000 0.000000 0.000000 0.000000 0.000000 10.000000 
weapon_bone 0.000000 0.000000 0.000000 0.000000 0.000000 0.000000 10.000000 
#Beginning of Data. Separated by tabs
#Fr	Tx	Ty	Tz	Rx	Ry	Rz	SF
[Pinger_Root]
28 0.000000 0.000000 0.000000 -0.000075 -0.000000 -0.000020 0.000000
29 0.000000 0.000000 0.000000 -0.000075 -0.000000 -0.000020 0.000000
30 0.000000 0.000000 0.000000 -0.000075 -0.000000 -0.000020 0.000000
[Pelvis]
28 -258.456177 2003.384155 3486.373291 -13.924791 -83.599136 0.394409 4029.286133
29 -255.730087 1998.270508 3488.526367 -13.857902 -83.566750 0.326126 4028.436279
30 -251.105637 1990.138672 3476.510010 -18.045130 -85.044449 4.507999 4013.705078
[L_Hip]
28 5.766392 125.831482 872.656799 172.961731 -43.422848 113.649773 881.701050
29 5.766392 125.831482 872.656799 172.961731 -43.422859 113.649780 881.701050
30 5.766392 125.831482 872.656799 172.961731 -43.422859 113.649780 881.701050
[R_Hip]
28 5.765438 125.836372 -872.654907 -97.697380 63.146221 -23.151073 881.699829
29 5.765438 125.836372 -872.654907 -97.697380 63.146221 -23.151073 881.699829
30 5.765438 125.836372 -872.654907 -97.697380 63.146221 -23.151073 881.699829
[Rear_Leg01]
28 -192.298416 -925.602966 -0.001907 179.877213 21.880968 -126.491158 945.367432
29 -192.298416 -925.602966 -0.001907 179.834427 21.872616 -126.603653 945.367432
30 -192.298416 -925.602966 -0.001907 178.453644 20.893122 -127.006645 945.367432
[Spine1]
28 290.604584 5.007505 0.000477 1.676523 -15.851912 40.472004 290.647736
29 290.604584 5.007505 0.000477 1.654592 -15.872281 40.473919 290.647736
30 290.604584 5.007505 0.000477 2.995252 -14.929819 39.254707 290.647736
[L_Leg01]
28 761.932007 -0.002384 -0.069261 47.951263 0.862555 -36.737450 761.932068
29 761.932007 -0.002384 -0.069261 47.929508 1.813372 -37.578930 761.932068
30 761.932007 -0.002384 -0.069261 48.666370 3.090578 -35.715313 761.932068
[L_Leg02]
28 1441.140503 -0.000954 -0.000715 6.406062 2.039067 -124.158371 1441.140503
29 1441.140503 -0.000954 -0.000715 6.355414 2.022812 -122.133156 1441.140503
30 1441.140503 -0.000954 -0.000715 6.648640 2.304341 -123.958687 1441.140503
[L_Leg03]
28 1686.963989 -0.000715 -0.000954 -0.106279 0.064534 139.611633 1686.963989
29 1686.963989 -0.000715 -0.000954 -0.106184 0.064691 139.780212 1686.963989
30 1686.963989 -0.000715 -0.000954 -0.111866 0.068738 140.905945 1686.963989
[L_Foot]
28 3041.570068 -30.715107 11.297464 -20.565676 40.640747 43.493366 3041.746094
29 3041.570068 -30.715107 11.297464 -20.562801 40.732758 42.627979 3041.746094
30 3041.570068 -30.715107 11.297464 -21.109079 40.609264 42.618977 3041.746094
[L_Toe1_01]
28 -188.216690 -224.732346 -21.137953 94.189873 -7.499127 179.912628 293.899567
29 -188.216690 -224.732346 -21.137953 94.189987 -7.500719 179.912354 293.899567
30 -188.216690 -224.732346 -21.137953 94.190109 -7.502313 179.912094 293.899567
[L_Toe2_01]
28 200.746536 -219.926590 148.838394 -98.193222 -36.571735 -34.803730 332.896027
29 200.746536 -219.926590 148.838394 -98.193222 -36.571735 -34.803730 332.896027
30 200.746536 -219.926590 148.838394 -98.193222 -36.571735 -34.803730 332.896027
[L_Toe3_01]
28 188.832520 -219.859131 -191.078659 -96.679802 25.038572 -61.562389 347.140900
29 188.832520 -219.859131 -191.078659 -96.679802 25.038572 -61.562389 347.140900
30 188.832520 -219.859131 -191.078659 -96.679802 25.038572 -61.562389 347.140900
[planeAlignerLeft]
28 0.812531 -811.448792 -0.314951 0.000000 -90.000000 -90.001900 811.449280
29 0.812531 -811.448792 -0.314951 0.000000 -90.000000 -90.001900 811.449280
30 0.812531 -811.448792 -0.314951 0.000000 -90.000000 -90.001900 811.449280
[L_Toe1_02]
28 413.761139 0.000477 0.000000 0.001661 0.068301 0.001661 413.761139
29 413.761139 0.000477 0.000000 0.001661 0.068178 0.001661 413.761139
30 413.761139 0.000477 0.000000 0.001661 0.068054 0.001661 413.761139
[L_Toe1_03]
28 464.317322 0.000358 -0.000089 0.001673 -0.448396 -0.003292 464.317322
29 464.317322 0.000358 -0.000089 0.001673 -0.448396 -0.003292 464.317322
30 464.317322 0.000358 -0.000089 0.001673 -0.448396 -0.003292 464.317322
[L_Toe2_02]
28 342.235809 -0.000477 0.000238 0.004684 -81.211685 0.004684 342.235809
29 342.235809 -0.000477 0.000238 0.004684 -81.212181 0.004684 342.235809
30 342.235809 -0.000477 0.000238 0.004684 -81.212646 0.004684 342.235809
[L_Toe2_03]
28 420.210846 -0.000715 0.000000 179.993240 43.061138 -179.999130 420.210846
29 420.210846 -0.000715 0.000000 179.993240 43.061138 -179.999130 420.210846
30 420.210846 -0.000715 0.000000 179.993240 43.061138 -179.999130 420.210846
[L_Toe3_02]
28 329.270111 0.000954 0.000000 0.004676 -84.586296 0.004676 329.270111
29 329.270111 0.000954 0.000000 0.004676 -84.586296 0.004676 329.270111
30 329.270111 0.000954 0.000000 0.004676 -84.586296 0.004676 329.270111
[L_Toe3_03]
28 439.137451 -0.001907 0.000954 179.993500 35.788990 -179.998657 439.137451
29 439.137451 -0.001907 0.000954 179.993500 35.788990 -179.998657 439.137451
30 439.137451 -0.001907 0.000954 179.993500 35.788990 -179.998657 439.137451
[planeLockWeightLeft]
28 -0.000954 0.000238 -0.000305 -0.011826 -0.004376 0.005620 0.001029
29 -0.000954 0.000238 -0.000305 -0.011826 -0.004376 0.005620 0.001029
30 -0.000954 0.000238 -0.000305 -0.011826 -0.004376 0.005620 0.001029
[R_Leg01]
28 761.455627 -0.001907 -0.000358 107.918610 -7.917697 80.355698 761.455688
29 761.455627 -0.001907 -0.000358 107.931686 -7.939387 80.448158 761.455688
30 761.455627 -0.001907 -0.000358 108.190887 -6.723652 82.479332 761.455688
[R_Leg02]
28 1441.140625 0.000000 -0.000238 -1.919798 -0.560917 -116.221992 1441.140625
29 1441.140625 0.000000 -0.000238 -1.916084 -0.561874 -116.122971 1441.140625
30 1441.140625 0.000000 -0.000238 -1.835007 -0.503020 -113.560204 1441.140625
[R_Leg03]
28 1686.963989 0.000954 0.001431 0.104608 -0.062883 138.857162 1686.963989
29 1686.963989 0.000954 0.001431 0.104626 -0.062854 138.825470 1686.963989
30 1686.963989 0.000954 0.001431 0.103293 -0.057501 138.021393 1686.963989
[R_Foot]
28 3041.560059 -30.531288 -11.204481 4.264152 5.769141 51.005928 3041.734131
29 3041.560059 -30.531288 -11.204481 4.170014 5.765287 50.938969 3041.734131
30 3041.560059 -30.531288 -11.204481 3.989925 5.732798 50.196762 3041.734131
[planeAlignerRight]
28 -0.635147 -812.270569 -0.364304 0.000000 -89.960434 -90.005180 812.270874
29 -0.635147 -812.270569 -0.364304 0.000000 -89.960434 -90.005180 812.270874
30 -0.635147 -812.270569 -0.364304 0.000000 -89.960434 -90.005180 812.270874
[R_Toe1_01]
28 -188.383347 -224.864899 21.052242 77.501556 2.584626 -171.438522 294.101532
29 -188.383347 -224.864899 21.052242 77.501556 2.584708 -171.438644 294.101532
30 -188.383347 -224.864899 21.052242 77.501541 2.584789 -171.438736 294.101532
[R_Toe2_01]
28 200.637817 -220.002121 -148.787384 -87.001381 41.727211 -47.414959 332.857574
29 200.637817 -220.002121 -148.787384 -87.001350 41.727604 -47.414795 332.857574
30 200.637817 -220.002121 -148.787384 -87.001328 41.727989 -47.414623 332.857574
[R_Toe3_01]
28 188.606735 -220.092957 191.126343 -74.774231 -14.746103 -63.949142 347.192566
29 188.606735 -220.092957 191.126343 -74.774208 -14.746099 -63.949127 347.192566
30 188.606735 -220.092957 191.126343 -74.774231 -14.746103 -63.949142 347.192566
[planeLockWeightRight]
28 -0.000477 0.000000 0.000000 -0.011823 -0.004379 -0.000027 0.000477
29 -0.000477 0.000000 0.000000 -0.011823 -0.004379 -0.000027 0.000477
30 -0.000477 0.000000 0.000000 -0.011823 -0.004379 -0.000027 0.000477
[R_Toe1_02]
28 413.762085 0.000477 -0.000119 0.001417 -21.800201 0.001417 413.762085
29 413.762085 0.000477 -0.000119 0.001417 -21.799170 0.001417 413.762085
30 413.762085 0.000477 -0.000119 0.001417 -21.798138 0.001417 413.762085
[R_Toe1_03]
28 464.317810 0.000000 0.001088 0.000899 28.909128 -0.003161 464.317810
29 464.317810 0.000000 0.001088 0.000899 28.909309 -0.003161 464.317810
30 464.317810 0.000000 0.001088 0.000899 28.909487 -0.003161 464.317810
[R_Toe2_02]
28 342.234741 -0.000954 0.000238 -0.002334 -78.739471 -0.002334 342.234741
29 342.234741 -0.000954 0.000238 -0.002334 -78.736717 -0.002334 342.234741
30 342.234741 -0.000954 0.000238 -0.002334 -78.733856 -0.002334 342.234741
[R_Toe2_03]
28 420.210846 0.000715 -0.000268 -179.994690 71.300629 -179.998230 420.210846
29 420.210846 0.000715 -0.000268 -179.994690 71.300629 -179.998230 420.210846
30 420.210846 0.000715 -0.000268 -179.994690 71.300659 -179.998230 420.210846
[R_Toe3_02]
28 329.270355 -0.000477 -0.000954 0.001175 -84.050995 0.001175 329.270355
29 329.270355 -0.000477 -0.000954 0.001175 -84.051559 0.001175 329.270355
30 329.270355 -0.000477 -0.000954 0.001175 -84.052254 0.001175 329.270355
[R_Toe3_03]
28 439.137939 0.000238 0.001431 -179.995331 57.502426 -179.988052 439.137939
29 439.137939 0.000238 0.001431 -179.995331 57.502258 -179.988052 439.137939
30 439.137939 0.000238 0.001431 -179.995331 57.502113 -179.988052 439.137939
[Rear_Leg02]
28 1162.777710 -0.029802 0.005960 5.946659 17.226616 -76.254906 1162.777710
29 1162.777710 -0.029802 0.005960 5.879069 17.248713 -76.475517 1162.777710
30 1162.777710 -0.029802 0.005960 5.601377 17.341692 -77.427559 1162.777710
[Rear_Leg03]
28 607.192505 -0.013351 -0.073195 0.008834 0.003035 52.073074 607.192505
29 607.192505 -0.013351 -0.073195 0.008836 0.003028 52.172146 607.192505
30 607.192505 -0.013351 -0.073195 0.006656 -0.001439 52.602062 607.192505
[Rear_Leg04]
28 995.874512 -0.020504 -0.011921 -0.033861 -0.013055 36.757004 995.874573
29 995.874512 -0.020504 -0.011921 -0.033879 -0.013008 36.918587 995.874573
30 995.874512 -0.020504 -0.011921 -0.035552 -0.017493 37.602283 995.874573
[Rear_Foot]
28 3096.176270 -0.067472 -0.041425 31.450106 66.586426 -118.242310 3096.176270
29 3096.176270 -0.067472 -0.041425 31.549433 66.653847 -118.223007 3096.176270
30 3096.176270 -0.067472 -0.041425 31.649061 66.721230 -118.203354 3096.176270
[planeAlignerCenter]
28 0.350077 0.966311 -838.790894 0.000009 0.000003 -179.999985 838.791565
29 0.350077 0.966311 -838.790894 0.000009 0.000003 -179.999985 838.791565
30 0.350077 0.966311 -838.790894 0.000009 0.000003 -179.999985 838.791565
[Rear_Toe1_01]
28 0.653352 83.966492 -371.173737 -30.751724 22.814484 86.596909 380.553192
29 0.653352 83.966492 -371.173737 -30.751724 22.814182 86.596779 380.553192
30 0.653352 83.966492 -371.173737 -30.751722 22.813885 86.596664 380.553192
[Rear_Toe2_01]
28 178.200760 -294.826019 -362.060547 -8.136350 -0.231456 -62.257462 499.765686
29 178.200760 -294.826019 -362.060547 -8.136409 -0.231698 -62.257450 499.765686
30 178.200760 -294.826019 -362.060547 -8.136468 -0.231940 -62.257435 499.765686
[Rear_Toe3_01]
28 -153.359680 -308.780914 -362.060852 3.734227 13.518385 -102.730667 499.952881
29 -153.359680 -308.780914 -362.060852 3.734251 13.518136 -102.730698 499.952881
30 -153.359680 -308.780914 -362.060852 3.734274 13.517886 -102.730713 499.952881
[planeLockWeightCenter]
28 -0.000062 0.000238 0.000000 -0.011814 -0.004373 -0.000015 0.000246
29 -0.000062 0.000238 0.000000 -0.011814 -0.004373 -0.000015 0.000246
30 -0.000062 0.000238 0.000000 -0.011814 -0.004373 -0.000015 0.000246
[Rear_Toe1_02]
28 379.707825 0.194073 0.000477 -0.006719 -30.027090 -0.006719 379.707855
29 379.707825 0.194073 0.000477 -0.006719 -30.026905 -0.006719 379.707855
30 379.707825 0.194073 0.000477 -0.006719 -30.026724 -0.006719 379.707855
[Rear_Toe1_03]
28 500.129700 0.165701 0.000119 -179.994797 70.677803 -179.998352 500.129761
29 500.129700 0.165701 0.000119 -179.994797 70.677574 -179.998352 500.129761
30 500.129700 0.165701 0.000119 -179.994797 70.677368 -179.998352 500.129761
[Rear_Toe2_02]
28 340.494507 0.000238 -0.000954 0.001661 0.063565 0.001661 340.494507
29 340.494507 0.000238 -0.000954 0.001661 0.063736 0.001661 340.494507
30 340.494507 0.000238 -0.000954 0.001661 0.063906 0.001661 340.494507
[Rear_Toe2_03]
28 433.103577 0.000000 0.000238 -0.003297 -0.804494 0.001683 433.103546
29 433.103577 0.000000 0.000238 -0.003297 -0.804494 0.001683 433.103546
30 433.103577 0.000000 0.000238 -0.003297 -0.804494 0.001683 433.103546
[Rear_Toe3_02]
28 340.494141 -0.000358 -0.000477 -0.002600 -36.670113 -0.002600 340.494171
29 340.494141 -0.000358 -0.000477 -0.002600 -36.670113 -0.002600 340.494171
30 340.494141 -0.000358 -0.000477 -0.002600 -36.670113 -0.002600 340.494171
[Rear_Toe3_03]
28 433.103577 0.001431 -0.000238 0.006396 30.730234 -0.001649 433.103546
29 433.103577 0.001431 -0.000238 0.006396 30.730234 -0.001649 433.103546
30 433.103577 0.001431 -0.000238 0.006396 30.730234 -0.001649 433.103546
[Back_Bone]
28 1312.175781 -701.934692 0.000954 15.733961 -25.614336 -91.086327 1488.125488
29 1312.175781 -701.934692 0.000954 15.309019 -25.720730 -90.761101 1488.125488
30 1312.175781 -701.934692 0.000954 14.757300 -25.765579 -89.937782 1488.125488
[Head]
28 1406.159424 809.709290 0.001431 -0.851836 -1.337734 42.799042 1622.625488
29 1406.159424 809.709290 0.001431 -0.851836 -1.337734 42.799042 1622.625488
30 1406.159424 809.709290 0.001431 -0.851836 -1.337734 42.799038 1622.625488
[Motor_Bone]
28 1158.364380 -417.834747 0.000477 -6.516654 -23.786312 -114.861351 1231.419434
29 1158.364380 -417.834747 0.000477 -7.141903 -24.877562 -114.477821 1231.419434
30 1158.364380 -417.834747 0.000477 -6.440437 -23.266964 -114.969254 1231.419434
[Ping_Mechanism]
28 1235.400635 -406.660553 26.698606 0.000103 -0.000053 82.120995 1300.884521
29 1241.215454 -365.351318 26.742859 0.000103 -0.000053 82.120995 1294.145508
30 1237.403931 -375.223907 20.657253 0.000103 -0.000053 82.120995 1293.208618
[BN_LookIK]
28 193.241119 1380.371704 -0.002861 0.000000 89.965736 -31.038179 1393.832153
29 193.241119 1380.371704 -0.002861 0.000000 89.965736 -31.038179 1393.832153
30 193.241119 1380.371704 -0.002861 0.000000 89.965736 -31.038179 1393.832153
[bottomMouth]
28 -435.092926 615.759399 -0.000954 -0.000022 0.000016 73.527184 753.966492
29 -435.092926 615.759399 -0.000954 -0.000022 0.000016 73.527184 753.966492
30 -435.092926 615.759399 -0.000954 -0.000022 0.000016 73.527184 753.966492
[L_Mouth01]
28 554.440979 7.658243 838.222046 150.204178 23.759130 109.605339 1005.027161
29 554.440979 7.658243 838.222046 150.204178 23.759130 109.605339 1005.027161
30 554.440979 7.658243 838.222046 150.204178 23.759130 109.605339 1005.027161
[L_mouthFront]
28 551.629089 934.514771 339.150421 0.000081 2.804060 79.119301 1136.941284
29 551.629089 934.514771 339.150421 0.000081 2.804060 79.119301 1136.941284
30 551.629089 934.514771 339.150421 0.000081 2.804060 79.119301 1136.941284
[mouthGun]
28 55.332661 1627.420898 0.000000 0.000023 0.000009 -11.038128 1628.361328
29 55.332661 1627.420898 0.000000 0.000023 0.000009 -11.038128 1628.361328
30 55.332661 1627.420898 0.000000 0.000023 0.000009 -11.038128 1628.361328
[R_Mouth01]
28 554.442383 7.659197 -838.223938 29.795891 -23.759109 109.605331 1005.029541
29 554.442383 7.659197 -838.223938 29.795891 -23.759109 109.605331 1005.029541
30 554.442383 7.659197 -838.223938 29.795891 -23.759109 109.605331 1005.029541
[R_mouthFront]
28 551.629089 934.514282 -339.151367 0.000029 -2.803930 79.119133 1136.941162
29 551.629089 934.514282 -339.151367 0.000029 -2.803930 79.119133 1136.941162
30 551.629089 934.514282 -339.151367 0.000029 -2.803930 79.119133 1136.941162
[TopMouth]
28 461.269867 -56.106091 -0.008583 -0.000059 -0.000268 92.025169 464.669525
29 461.269867 -56.106091 -0.008583 -0.000059 -0.000268 92.025169 464.669525
30 461.269867 -56.106091 -0.008583 -0.000059 -0.000268 92.025169 464.669525
[weapon_bone]
28 -987.239868 1448.372803 0.001431 0.000000 89.965736 -31.038221 1752.833740
29 -987.239868 1448.372803 0.001431 0.000000 89.965736 -31.038221 1752.833740
30 -987.239868 1448.372803 0.001431 0.000000 89.965736 -31.038221 1752.833740
